<svg width="26" height="26" viewBox="0 0 26 26" fill="none" xmlns="http://www.w3.org/2000/svg">
<path d="M3.85938 18.332H6.14453V19.8555H7.66797V9.19141H6.14453V10.7148H4.62109V9.95312C4.62109 5.333 8.37987 1.52344 13 1.52344C17.6201 1.52344 21.3789 5.333 21.3789 9.95312V10.7148H19.8555V9.19141H18.332V19.8555H19.8555V18.332H21.3789V20.6172C21.3789 21.8773 20.3538 22.9531 19.0938 22.9531H15.1448C14.8293 22.0684 13.9918 21.4297 13 21.4297C11.7399 21.4297 10.7148 22.4548 10.7148 23.7148C10.7148 24.9749 11.7399 26 13 26C13.9918 26 14.8293 25.3613 15.1448 24.4766H19.0938C21.1937 24.4766 22.9023 22.7171 22.9023 20.6172V18.1917C23.7871 17.8762 24.4258 17.0386 24.4258 16.0469V13C24.4258 12.0082 23.7871 11.1707 22.9023 10.8552V9.95312C22.9023 4.49312 18.46 0 13 0C7.54 0 3.09766 4.49312 3.09766 9.95312V10.8552C2.21295 11.1707 1.57422 12.0082 1.57422 13V16.0469C1.57422 17.307 2.59929 18.332 3.85938 18.332Z" fill="#1D2992"/>
</svg>
