<svg width="26" height="26" viewBox="0 0 26 26" fill="none" xmlns="http://www.w3.org/2000/svg">
<g clip-path="url(#clip0_7_79)">
<path d="M12.4585 23.8821H3.1146C2.5415 23.8821 2.07642 23.4169 2.07642 22.8439V4.15615C2.07642 3.58306 2.54155 3.11797 3.1146 3.11797H12.4585C13.0326 3.11797 13.4967 2.65391 13.4967 2.07979C13.4967 1.50566 13.0326 1.0415 12.4585 1.0415H3.1146C1.39741 1.0415 0 2.43897 0 4.15615V22.8438C0 24.561 1.39741 25.9584 3.1146 25.9584H12.4585C13.0326 25.9584 13.4967 25.4944 13.4967 24.9203C13.4967 24.3461 13.0326 23.8821 12.4585 23.8821Z" fill="#979797"/>
<path d="M24.6906 12.7608L18.3783 6.53153C17.9713 6.1287 17.3131 6.13392 16.9103 6.54193C16.5075 6.94994 16.5116 7.60711 16.9207 8.00995L21.4317 12.4618H9.34385C8.76973 12.4618 8.30566 12.9258 8.30566 13.4999C8.30566 14.0741 8.76973 14.5382 9.34385 14.5382H21.4317L16.9207 18.99C16.5117 19.3928 16.5085 20.05 16.9103 20.458C17.1138 20.6636 17.3816 20.7674 17.6495 20.7674C17.9132 20.7674 18.1769 20.6677 18.3783 20.4683L24.6906 14.2391C24.8879 14.0439 25 13.7781 25 13.4999C25 13.2218 24.8889 12.957 24.6906 12.7608Z" fill="#979797"/>
</g>
<defs>
<clipPath id="clip0_7_79">
<rect width="25" height="25" fill="white" transform="translate(0 1)"/>
</clipPath>
</defs>
</svg>
