<svg width="26" height="26" viewBox="0 0 26 26" fill="none" xmlns="http://www.w3.org/2000/svg">
<g clip-path="url(#clip0_7_106)">
<path d="M0 20.6172H10.4197L9.40408 23.6641H6.14453V25.1875H19.8555V23.6641H16.5959L15.5803 20.6172H26V0.8125H0V20.6172ZM14.99 23.6641H11.0099L12.0256 20.6172H13.9744L14.99 23.6641ZM1.52344 2.33594H24.4766V19.0938H1.52344V2.33594Z" fill="#1D2992"/>
<path d="M16.8086 7.66797C16.8086 5.56791 15.1001 3.85938 13 3.85938C10.8999 3.85938 9.19141 5.56791 9.19141 7.66797C9.19141 9.76803 10.8999 11.4766 13 11.4766C15.1001 11.4766 16.8086 9.76803 16.8086 7.66797ZM13 9.95312C11.74 9.95312 10.7148 8.928 10.7148 7.66797C10.7148 6.40793 11.74 5.38281 13 5.38281C14.26 5.38281 15.2852 6.40793 15.2852 7.66797C15.2852 8.928 14.26 9.95312 13 9.95312Z" fill="#1D2992"/>
<path d="M13 11.4766C10.0599 11.4766 7.66797 13.8685 7.66797 16.8086V17.5703H18.332V16.8086C18.332 13.8685 15.9401 11.4766 13 11.4766ZM9.26793 16.0469C9.62188 14.3106 11.1608 13 13 13C14.8392 13 16.3781 14.3106 16.7321 16.0469H9.26793Z" fill="#1D2992"/>
</g>
<defs>
<clipPath id="clip0_7_106">
<rect width="26" height="26" fill="white"/>
</clipPath>
</defs>
</svg>
