<svg width="30" height="36" viewBox="0 0 30 36" fill="none" xmlns="http://www.w3.org/2000/svg">
<path d="M21.9278 0C22.0116 0 22.0954 0 22.1839 0C22.3894 2.5388 21.4204 4.43578 20.2427 5.80951C19.0871 7.17376 17.5047 8.4969 14.9453 8.29614C14.7746 5.7937 15.7452 4.03741 16.9214 2.66684C18.0121 1.38954 20.0119 0.252931 21.9278 0Z" fill="black"/>
<path d="M29.6754 26.425C29.6754 26.4503 29.6754 26.4724 29.6754 26.4961C28.9561 28.6745 27.9302 30.5414 26.6782 32.274C25.5353 33.8469 24.1346 35.9636 21.6338 35.9636C19.4728 35.9636 18.0374 34.5741 15.8227 34.5362C13.4799 34.4982 12.1916 35.6981 10.0495 36C9.80452 36 9.55949 36 9.31921 36C7.74629 35.7724 6.47689 34.5267 5.55212 33.4043C2.8252 30.0877 0.717971 25.8037 0.325928 20.3214C0.325928 19.7839 0.325928 19.2481 0.325928 18.7106C0.491914 14.787 2.39838 11.5969 4.93244 10.0508C6.26981 9.22882 8.1083 8.52852 10.1555 8.84152C11.0328 8.97747 11.9291 9.27782 12.7148 9.57502C13.4594 9.86115 14.3905 10.3686 15.2726 10.3417C15.8701 10.3243 16.4645 10.0129 17.0668 9.79317C18.831 9.1561 20.5604 8.42576 22.84 8.7688C25.5795 9.18297 27.5239 10.4002 28.7253 12.2782C26.4079 13.7531 24.5757 15.9758 24.8887 19.7713C25.1669 23.2191 27.1714 25.2362 29.6754 26.425Z" fill="black"/>
</svg>
