<svg width="26" height="26" viewBox="0 0 26 26" fill="none" xmlns="http://www.w3.org/2000/svg">
<g clip-path="url(#clip0_7_133)">
<path d="M25.7445 7.56198L25.5073 7.02393L24.1133 7.63835L24.3505 8.17641C24.6535 8.86375 24.3913 9.66533 23.7408 10.0409L23.696 10.0668C22.4179 8.28619 20.411 7.06257 18.1153 6.83614C18.2556 6.35928 18.3313 5.85504 18.3313 5.33338C18.3313 2.39342 15.9394 0.00157166 12.9994 0.00157166C10.2245 0.00157166 7.93836 2.13246 7.69035 4.84382C5.75028 4.15836 3.72617 4.86439 3.62243 4.90156L2.91737 5.15429L4.06324 8.52861C3.30039 9.14446 2.65717 9.90026 2.17203 10.7515H0V18.4777H2.17193C2.80255 19.5855 3.69535 20.525 4.77634 21.2131C5.32471 21.5623 5.91095 21.8392 6.52198 22.0403L7.9702 26.0005H12.393V22.4311H13.9165V26.0005H18.3394L19.7882 22.0388C22.904 21.0097 25.159 18.0708 25.159 14.6145C25.159 13.4635 24.9087 12.3697 24.46 11.3848L24.5025 11.3602C25.8277 10.5951 26.3616 8.96222 25.7445 7.56198ZM12.9994 1.52495C15.0994 1.52495 16.8079 3.23342 16.8079 5.33338C16.8079 7.43335 15.0994 9.14182 12.9994 9.14182C10.8995 9.14182 9.19103 7.43335 9.19103 5.33338C9.19103 3.23342 10.8995 1.52495 12.9994 1.52495ZM10.8697 24.4772H9.03524L8.27548 22.3996C8.5047 22.4197 8.73534 22.4311 8.96709 22.4311H10.8697V24.4772ZM17.2745 24.4772H15.4399V22.4311H17.3424C17.5754 22.4311 17.806 22.4203 18.034 22.4002L17.2745 24.4772ZM17.3423 20.9078H8.96709C7.76739 20.9078 6.60114 20.5691 5.59449 19.9281C4.61369 19.3037 3.82515 18.4228 3.31415 17.3807L3.10514 16.9543H1.52338V12.275H3.10494L3.31405 11.8487C3.78823 10.8819 4.50792 10.0468 5.39523 9.43356L5.86839 9.10663L4.86607 6.15509C5.62552 6.01982 6.83828 5.95375 7.81822 6.5925C8.38552 8.92682 10.4931 10.6652 12.9994 10.6652C14.8327 10.6652 16.4526 9.73525 17.4127 8.32225C20.8505 8.36012 23.6356 11.168 23.6356 14.6146C23.6356 18.0847 20.8124 20.9078 17.3423 20.9078Z" fill="#1D2992"/>
<path d="M12.9994 7.61746C14.2594 7.61746 15.2844 6.59238 15.2844 5.33239C15.2844 4.07241 14.2594 3.04734 12.9994 3.04734C11.7394 3.04734 10.7144 4.07241 10.7144 5.33239C10.7144 6.59238 11.7394 7.61746 12.9994 7.61746ZM12.9994 4.5707C13.4194 4.5707 13.7611 4.9124 13.7611 5.33239C13.7611 5.75239 13.4194 6.09408 12.9994 6.09408C12.5794 6.09408 12.2377 5.75239 12.2377 5.33239C12.2377 4.9124 12.5794 4.5707 12.9994 4.5707Z" fill="#1D2992"/>
<path d="M5.33179 11.6115H6.85516V13.1349H5.33179V11.6115Z" fill="#1D2992"/>
</g>
<defs>
<clipPath id="clip0_7_133">
<rect width="26" height="26" fill="white"/>
</clipPath>
</defs>
</svg>
