<svg width="26" height="26" viewBox="0 0 26 26" fill="none" xmlns="http://www.w3.org/2000/svg">
<g clip-path="url(#clip0_7_140)">
<path d="M12.9998 11.916C14.1964 11.916 15.1665 10.946 15.1665 9.74937C15.1665 8.55276 14.1964 7.58271 12.9998 7.58271C11.8032 7.58271 10.8331 8.55276 10.8331 9.74937C10.8331 10.946 11.8032 11.916 12.9998 11.916Z" fill="#1D2992"/>
<path d="M14.3544 13H11.646C10.0026 13 8.66687 14.3357 8.66687 15.9792V16.5208C8.66687 16.9693 9.03087 17.3333 9.47937 17.3333H16.521C16.9695 17.3333 17.3335 16.9693 17.3335 16.5208V15.9792C17.3335 14.3357 15.9978 13 14.3544 13Z" fill="#1D2992"/>
<path d="M12.9998 11.916C11.8049 11.916 10.8331 10.9443 10.8331 9.74937C10.8331 8.55446 11.8049 7.58271 12.9998 7.58271C14.1947 7.58271 15.1665 8.55446 15.1665 9.74937C15.1665 10.9443 14.1947 11.916 12.9998 11.916ZM12.9998 9.20771C12.7019 9.20771 12.4581 9.45146 12.4581 9.74937C12.4581 10.0473 12.7019 10.291 12.9998 10.291C13.2977 10.291 13.5415 10.0473 13.5415 9.74937C13.5415 9.45146 13.2977 9.20771 12.9998 9.20771Z" fill="#1D2992"/>
<path d="M16.521 17.3333C16.0725 17.3333 15.7085 16.9693 15.7085 16.5208V15.9792C15.7085 15.2327 15.1008 14.625 14.3544 14.625H11.646C10.8996 14.625 10.2919 15.2327 10.2919 15.9792V16.5208C10.2919 16.9693 9.92787 17.3333 9.47937 17.3333C9.03087 17.3333 8.66687 16.9693 8.66687 16.5208V15.9792C8.66687 14.3357 10.0026 13 11.646 13H14.3544C15.9978 13 17.3335 14.3357 17.3335 15.9792V16.5208C17.3335 16.9693 16.9695 17.3333 16.521 17.3333Z" fill="#1D2992"/>
<path d="M13.0002 23.8339C7.0267 23.8339 2.16687 18.9741 2.16687 13.0006C2.16687 7.02711 7.0267 2.16728 13.0002 2.16728C18.9737 2.16728 23.8335 7.02711 23.8335 13.0006C23.8335 18.9741 18.9737 23.8339 13.0002 23.8339ZM13.0002 3.79228C7.92262 3.79228 3.79187 7.92303 3.79187 13.0006C3.79187 18.0782 7.92262 22.2089 13.0002 22.2089C18.0778 22.2089 22.2085 18.0782 22.2085 13.0006C22.2085 7.92303 18.0778 3.79228 13.0002 3.79228Z" fill="#1D2992"/>
<path d="M13 5.41666C12.5515 5.41666 12.1875 5.05266 12.1875 4.60416V0.812492C12.1875 0.363992 12.5515 -7.62939e-06 13 -7.62939e-06C13.4485 -7.62939e-06 13.8125 0.363992 13.8125 0.812492V4.60416C13.8125 5.05266 13.4485 5.41666 13 5.41666Z" fill="#1D2992"/>
<path d="M13 5.41666C12.5515 5.41666 12.1875 5.05266 12.1875 4.60416V0.812492C12.1875 0.363992 12.5515 -7.62939e-06 13 -7.62939e-06C13.4485 -7.62939e-06 13.8125 0.363992 13.8125 0.812492V4.60416C13.8125 5.05266 13.4485 5.41666 13 5.41666Z" fill="#1D2992"/>
<path d="M25.1873 13.8125H21.3956C20.9471 13.8125 20.5831 13.4485 20.5831 13C20.5831 12.5515 20.9471 12.1875 21.3956 12.1875H25.1873C25.6358 12.1875 25.9998 12.5515 25.9998 13C25.9998 13.4485 25.6358 13.8125 25.1873 13.8125Z" fill="#1D2992"/>
<path d="M13 25.9994C12.5515 25.9994 12.1875 25.6354 12.1875 25.1869V21.3952C12.1875 20.9467 12.5515 20.5827 13 20.5827C13.4485 20.5827 13.8125 20.9467 13.8125 21.3952V25.1869C13.8125 25.6354 13.4485 25.9994 13 25.9994Z" fill="#1D2992"/>
<path d="M4.60417 13.8125H0.8125C0.364 13.8125 0 13.4485 0 13C0 12.5515 0.364 12.1875 0.8125 12.1875H4.60417C5.05267 12.1875 5.41667 12.5515 5.41667 13C5.41667 13.4485 5.05267 13.8125 4.60417 13.8125Z" fill="#1D2992"/>
</g>
<defs>
<clipPath id="clip0_7_140">
<rect width="26" height="26" fill="white"/>
</clipPath>
</defs>
</svg>
