<svg width="35" height="35" viewBox="0 0 35 35" fill="none" xmlns="http://www.w3.org/2000/svg">
<path d="M14.2935 17.5287L0.665157 3.89993C-0.221748 3.01344 -0.221748 1.58011 0.665157 0.693616C1.55165 -0.192875 2.98499 -0.192875 3.87148 0.693616L17.5002 14.3223L31.1285 0.693616C32.0154 -0.192875 33.4483 -0.192875 34.3348 0.693616C35.2217 1.58011 35.2217 3.01344 34.3348 3.89993L20.7065 17.5287L34.3348 31.1574C35.2217 32.0439 35.2217 33.4772 34.3348 34.3637C33.893 34.8059 33.3121 35.028 32.7317 35.028C32.1512 35.028 31.5707 34.8059 31.1285 34.3637L17.5002 20.735L3.87148 34.3637C3.42927 34.8059 2.84879 35.028 2.26832 35.028C1.68784 35.028 1.10736 34.8059 0.665157 34.3637C-0.221748 33.4772 -0.221748 32.0439 0.665157 31.1574L14.2935 17.5287Z" fill="#DDDDDD"/>
</svg>
