<svg width="26" height="26" viewBox="0 0 26 26" fill="none" xmlns="http://www.w3.org/2000/svg">
<g clip-path="url(#clip0_7_97)">
<path d="M12.9999 4.33423C11.805 4.33423 10.8333 5.30593 10.8333 6.50091C10.8333 7.69589 11.805 8.66759 12.9999 8.66759C14.1949 8.66759 15.1666 7.69589 15.1666 6.50091C15.1666 5.30593 14.1949 4.33423 12.9999 4.33423ZM12.9999 7.58422C12.4028 7.58422 11.9166 7.0981 11.9166 6.50091C11.9166 5.90372 12.4028 5.41759 12.9999 5.41759C13.5971 5.41759 14.0833 5.90372 14.0833 6.50091C14.0833 7.0981 13.5971 7.58422 12.9999 7.58422Z" fill="#1D2992"/>
<path d="M14.625 9.75H10.2917C9.99228 9.75 9.75 9.99228 9.75 10.2917V12.4584C9.75 12.7578 9.99228 13.0001 10.2917 13.0001H10.8334V21.1251C10.8334 21.4245 11.0756 21.6667 11.3751 21.6667H14.6251C14.9245 21.6667 15.1667 21.4245 15.1667 21.1251V10.2917C15.1667 9.99228 14.9244 9.75 14.625 9.75ZM14.0833 20.5833H11.9166V12.4583C11.9166 12.1589 11.6744 11.9166 11.3749 11.9166H10.8333V10.8333H14.0833V20.5833H14.0833Z" fill="#1D2992"/>
<path d="M13 0C5.83192 0 0 5.83192 0 13C0 20.1681 5.83192 26 13 26C20.1681 26 26 20.1681 26 13C26 5.83192 20.1681 0 13 0ZM13 24.9167C6.42911 24.9167 1.08332 19.5709 1.08332 13C1.08332 6.42911 6.42911 1.08332 13 1.08332C19.5709 1.08332 24.9167 6.42911 24.9167 13C24.9167 19.5709 19.5709 24.9167 13 24.9167Z" fill="#1D2992"/>
</g>
<defs>
<clipPath id="clip0_7_97">
<rect width="26" height="26" fill="white"/>
</clipPath>
</defs>
</svg>
