<svg width="26" height="26" viewBox="0 0 26 26" fill="none" xmlns="http://www.w3.org/2000/svg">
<g clip-path="url(#clip0_7_113)">
<path d="M24.2708 13.3368C24.1661 13.1228 24.1661 12.8773 24.2708 12.6633L25.2405 10.6796C25.7804 9.57503 25.3526 8.25854 24.2666 7.68232L22.3161 6.64741C22.1057 6.53579 21.9614 6.33714 21.9202 6.10258L21.5387 3.92768C21.3263 2.71676 20.2062 1.90305 18.9891 2.07524L16.8029 2.3845C16.5669 2.41781 16.3335 2.34195 16.1624 2.17635L14.5754 0.641139C13.6918 -0.213708 12.3075 -0.213759 11.4239 0.641139L9.83688 2.1765C9.66565 2.34215 9.43231 2.41786 9.19638 2.38465L7.01011 2.0754C5.79264 1.9031 4.67292 2.71691 4.4605 3.92783L4.07903 6.10263C4.03785 6.33724 3.89358 6.53584 3.68319 6.64751L1.7327 7.68243C0.646697 8.25859 0.218918 9.57518 0.758821 10.6797L1.72848 12.6634C1.83309 12.8775 1.83309 13.1229 1.72848 13.3369L0.75877 15.3206C0.218867 16.4252 0.646646 17.7417 1.73265 18.3179L3.68314 19.3528C3.89358 19.4644 4.03785 19.6631 4.07903 19.8976L4.4605 22.0725C4.65387 23.1749 5.59911 23.948 6.68547 23.9479C6.79246 23.9479 6.90103 23.9404 7.01016 23.9249L9.19643 23.6157C9.43221 23.5822 9.6657 23.6582 9.83693 23.8238L11.4239 25.359C11.8658 25.7865 12.4326 26.0002 12.9996 26.0001C13.5665 26.0001 14.1337 25.7864 14.5754 25.359L16.1624 23.8238C16.3336 23.6582 16.567 23.5826 16.8029 23.6157L18.9891 23.9249C20.2068 24.0972 21.3263 23.2834 21.5387 22.0725L21.9203 19.8977C21.9614 19.6631 22.1057 19.4645 22.3161 19.3528L24.2666 18.3179C25.3526 17.7417 25.7804 16.4251 25.2405 15.3206L24.2708 13.3368ZM23.5637 16.9932L21.6132 18.0281C20.9914 18.3581 20.5649 18.945 20.4432 19.6385L20.0618 21.8133C19.9899 22.223 19.6111 22.4982 19.1992 22.4401L17.0129 22.1308C16.3157 22.0321 15.6258 22.2565 15.1197 22.7459L13.5327 24.2811C13.2338 24.5702 12.7655 24.5702 12.4665 24.2811L10.8795 22.7459C10.4518 22.3322 9.89274 22.108 9.30906 22.108C9.20212 22.108 9.09431 22.1155 8.98635 22.1308L6.80008 22.44C6.38845 22.4982 6.00937 22.223 5.93746 21.8133L5.55595 19.6384C5.43427 18.9449 5.00782 18.358 4.3859 18.028L2.43541 16.9931C2.06795 16.7982 1.92323 16.3528 2.10589 15.9791L3.0756 13.9953C3.38476 13.3628 3.38476 12.6373 3.0756 12.0048L2.10589 10.021C1.92323 9.64734 2.06795 9.20194 2.43541 9.007L4.3859 7.97208C5.00777 7.64206 5.43427 7.05513 5.55589 6.36166L5.93736 4.18682C6.00927 3.77712 6.38799 3.50188 6.79998 3.56008L8.98625 3.86933C9.68322 3.968 10.3734 3.7437 10.8794 3.25423L12.4664 1.71902C12.7653 1.42987 13.2337 1.42987 13.5327 1.71902L15.1196 3.25423C15.6257 3.74375 16.3157 3.968 17.0128 3.86933L19.1991 3.56008C19.6107 3.50183 19.9898 3.77712 20.0617 4.18682L20.4431 6.36171C20.5648 7.05518 20.9913 7.64216 21.6132 7.97208L23.5637 9.007C23.9311 9.20194 24.0759 9.64734 23.8932 10.021L22.9235 12.0047C22.6143 12.6372 22.6143 13.3628 22.9235 13.9953L23.8932 15.979C24.0759 16.3528 23.9312 16.7982 23.5637 16.9932Z" fill="#1D2992"/>
<path d="M18.479 7.52194C18.1862 7.22914 17.7114 7.22914 17.4186 7.52194L7.52197 17.4186C7.22917 17.7114 7.22917 18.1862 7.52197 18.479C7.66837 18.6254 7.86027 18.6986 8.05212 18.6986C8.24398 18.6986 8.43593 18.6254 8.58228 18.479L18.4789 8.58235C18.7718 8.28949 18.7718 7.81479 18.479 7.52194Z" fill="#1D2992"/>
<path d="M10.0011 6.25267C8.48515 6.25267 7.25183 7.48599 7.25183 9.0019C7.25183 10.5178 8.48515 11.7511 10.0011 11.7511C11.517 11.7511 12.7503 10.5178 12.7503 9.0019C12.7503 7.48599 11.517 6.25267 10.0011 6.25267ZM10.0011 10.2515C9.31201 10.2515 8.75144 9.69095 8.75144 9.00185C8.75144 8.3128 9.31201 7.75223 10.0011 7.75223C10.6901 7.75223 11.2507 8.3128 11.2507 9.00185C11.2507 9.69095 10.6901 10.2515 10.0011 10.2515Z" fill="#1D2992"/>
<path d="M15.9992 14.2502C14.4833 14.2502 13.25 15.4835 13.25 16.9994C13.25 18.5154 14.4833 19.7487 15.9992 19.7487C17.5151 19.7487 18.7485 18.5154 18.7485 16.9994C18.7485 15.4835 17.5151 14.2502 15.9992 14.2502ZM15.9992 18.2491C15.3102 18.2491 14.7496 17.6885 14.7496 16.9994C14.7496 16.3104 15.3101 15.7498 15.9992 15.7498C16.6883 15.7498 17.2488 16.3104 17.2488 16.9994C17.2488 17.6885 16.6883 18.2491 15.9992 18.2491Z" fill="#1D2992"/>
</g>
<defs>
<clipPath id="clip0_7_113">
<rect width="26" height="26" fill="white"/>
</clipPath>
</defs>
</svg>
