<svg width="15" height="15" viewBox="0 0 15 15" fill="none" xmlns="http://www.w3.org/2000/svg">
<path d="M14.25 8.25H8.25004V14.25C8.25004 14.664 7.914 15 7.49995 15C7.08604 15 6.75 14.664 6.75 14.25V8.25H0.749954C0.336044 8.25 0 7.91396 0 7.50005C0 7.086 0.336044 6.74996 0.749954 6.74996H6.75V0.750048C6.75 0.336 7.08604 -4.3869e-05 7.49995 -4.3869e-05C7.914 -4.3869e-05 8.25004 0.336 8.25004 0.750048V6.74996H14.25C14.664 6.74996 15 7.086 15 7.50005C15 7.91396 14.664 8.25 14.25 8.25Z" fill="#C5C7CD"/>
</svg>
