<svg width="82" height="82" viewBox="0 0 82 82" fill="none" xmlns="http://www.w3.org/2000/svg">
<path d="M69.1875 2.88281H12.8125C5.74748 2.88281 0 8.63029 0 15.6953V60.5391C0 67.6041 5.74748 73.3516 12.8125 73.3516H56.5352C58.3044 73.3516 59.7383 71.9177 59.7383 70.1484C59.7383 68.3792 58.3044 66.9453 56.5352 66.9453H44.7374L37.3727 57.391L60.7111 27.7064L76.4221 45.0708C77.3104 46.0537 78.7124 46.3871 79.9486 45.911C81.1842 45.4343 82 44.2463 82 42.9219V15.6953C82 8.63029 76.2525 2.88281 69.1875 2.88281V2.88281ZM75.5938 34.6075L62.9145 20.5932C62.2814 19.8932 61.3705 19.5065 60.4283 19.5409C59.4855 19.5741 58.6047 20.0208 58.021 20.7628L33.3382 52.1571L24.9587 41.2865C24.3525 40.5001 23.4153 40.0391 22.4219 40.0391C22.4212 40.0391 22.4206 40.0391 22.42 40.0391C21.4265 40.0397 20.4887 40.5014 19.8831 41.289L12.8338 50.453C11.7552 51.8556 12.0173 53.8663 13.4193 54.9449C14.822 56.024 16.8327 55.7613 17.9118 54.3593L22.4244 48.4923L36.6489 66.9453H12.8125C9.2803 66.9453 6.40625 64.0713 6.40625 60.5391V15.6953C6.40625 12.1631 9.2803 9.28906 12.8125 9.28906H69.1875C72.7197 9.28906 75.5938 12.1631 75.5938 15.6953V34.6075Z" fill="#C4C4C4"/>
<path d="M22.4219 14.4141C17.123 14.4141 12.8125 18.7245 12.8125 24.0234C12.8125 29.3224 17.123 33.6328 22.4219 33.6328C27.7208 33.6328 32.0312 29.3224 32.0312 24.0234C32.0312 18.7245 27.7208 14.4141 22.4219 14.4141ZM22.4219 27.2266C20.6558 27.2266 19.2188 25.7895 19.2188 24.0234C19.2188 22.2573 20.6558 20.8203 22.4219 20.8203C24.188 20.8203 25.625 22.2573 25.625 24.0234C25.625 25.7895 24.188 27.2266 22.4219 27.2266Z" fill="#C4C4C4"/>
<path d="M75.0294 51.4008C75.02 51.3914 75.0106 51.3814 75.0012 51.372C73.4872 49.8474 71.4734 49.0078 69.33 49.0078C67.193 49.0078 65.1848 49.8424 63.6727 51.3582L57.4885 57.4579C56.2291 58.6998 56.2154 60.728 57.4578 61.9874C58.6997 63.2467 60.7279 63.2611 61.9873 62.0186L66.1269 57.9359V75.9141C66.1269 77.6833 67.5608 79.1172 69.33 79.1172C71.0993 79.1172 72.5332 77.6833 72.5332 75.9141V58.0335L76.4952 62.1262C77.1233 62.7756 77.9597 63.1016 78.7968 63.1016C79.5994 63.1016 80.4027 62.8019 81.0246 62.2001C82.2958 60.9695 82.3284 58.9419 81.0978 57.6706L75.0294 51.4008Z" fill="#C4C4C4"/>
</svg>
