<svg width="20" height="20" viewBox="0 0 20 20" fill="none" xmlns="http://www.w3.org/2000/svg">
<path d="M19.8729 9.61009C19.6942 9.36568 15.4371 3.62547 9.9999 3.62547C4.56274 3.62547 0.305391 9.36568 0.126914 9.60986C-0.0423048 9.84174 -0.0423048 10.1562 0.126914 10.3881C0.305391 10.6325 4.56274 16.3727 9.9999 16.3727C15.4371 16.3727 19.6942 10.6325 19.8729 10.3883C20.0423 10.1565 20.0423 9.84173 19.8729 9.61009ZM9.9999 15.0541C5.99486 15.0541 2.52606 11.2442 1.49922 9.99865C2.52473 8.75205 5.98626 4.94415 9.9999 4.94415C14.0048 4.94415 17.4733 8.75337 18.5006 9.99955C17.4751 11.2461 14.0135 15.0541 9.9999 15.0541Z" fill="#979797"/>
<path d="M9.99976 6.04434C7.81843 6.04434 6.0437 7.81907 6.0437 10.0004C6.0437 12.1817 7.81843 13.9565 9.99976 13.9565C12.1811 13.9565 13.9558 12.1817 13.9558 10.0004C13.9558 7.81907 12.1811 6.04434 9.99976 6.04434ZM9.99976 12.6378C8.54546 12.6378 7.36241 11.4547 7.36241 10.0004C7.36241 8.54614 8.5455 7.36305 9.99976 7.36305C11.454 7.36305 12.6371 8.54614 12.6371 10.0004C12.6371 11.4547 11.4541 12.6378 9.99976 12.6378Z" fill="#979797"/>
</svg>
